<svg width="30" height="31" viewBox="0 0 30 31" fill="none" xmlns="http://www.w3.org/2000/svg">
<path d="M15.0102 0.237674C11.5126 0.235456 8.1242 1.4555 5.43081 3.68685C2.73742 5.9182 0.908415 9.02058 0.260032 12.4576C-0.388351 15.8945 0.184655 19.4501 1.87997 22.5093C3.57529 25.5686 6.28634 27.9393 9.54436 29.2115C9.41311 28.0246 9.2931 26.2001 9.59499 24.9045C9.86875 23.7325 11.3538 17.4472 11.3538 17.4472C11.3538 17.4472 10.9057 16.5491 10.9057 15.2215C10.9057 13.1345 12.1151 11.5782 13.6208 11.5782C14.8996 11.5782 15.5184 12.5383 15.5184 13.6914C15.5184 14.9777 14.699 16.9016 14.2752 18.6848C13.9227 20.1774 15.0252 21.3962 16.4972 21.3962C19.1636 21.3962 21.213 18.5835 21.213 14.5258C21.213 10.9351 18.631 8.42431 14.9465 8.42431C10.6788 8.42431 8.17367 11.6251 8.17367 14.9327C8.17367 16.2228 8.67057 17.6047 9.28935 18.3567C9.34264 18.4133 9.38032 18.4829 9.39873 18.5584C9.41713 18.634 9.41562 18.7131 9.39436 18.7879C9.27998 19.2604 9.02684 20.2805 8.97809 20.4886C8.91246 20.7624 8.76058 20.8205 8.47556 20.6893C6.60048 19.8173 5.43042 17.0778 5.43042 14.8765C5.43042 10.1456 8.86933 5.80106 15.3421 5.80106C20.5455 5.80106 24.5901 9.50811 24.5901 14.464C24.5901 19.6336 21.3293 23.7944 16.8066 23.7944C15.2859 23.7944 13.8571 23.005 13.3677 22.0712L12.4339 25.6376C12.0945 26.9408 11.1794 28.574 10.5682 29.5697C12.6307 30.2074 14.8066 30.3924 16.9472 30.1121C19.0878 29.8317 21.1427 29.0926 22.9715 27.9453C24.8002 26.798 26.3598 25.2694 27.5436 23.464C28.7274 21.6587 29.5076 19.619 29.8309 17.4845C30.1541 15.35 30.0129 13.1708 29.4167 11.0958C28.8205 9.02091 27.7834 7.09912 26.3764 5.46174C24.9694 3.82436 23.2255 2.50998 21.2639 1.60839C19.3022 0.706802 17.1691 0.23925 15.0102 0.237674Z" fill="white"/>
</svg>
