<svg width="30" height="31" viewBox="0 0 30 31" fill="none" xmlns="http://www.w3.org/2000/svg">
<path d="M1.66667 0.239258H28.3333C28.7754 0.239258 29.1993 0.414852 29.5118 0.727413C29.8244 1.03997 30 1.4639 30 1.90592V28.5726C30 29.0146 29.8244 29.4385 29.5118 29.7511C29.1993 30.0637 28.7754 30.2393 28.3333 30.2393H1.66667C1.22464 30.2393 0.800716 30.0637 0.488156 29.7511C0.175595 29.4385 0 29.0146 0 28.5726V1.90592C0 1.4639 0.175595 1.03997 0.488156 0.727413C0.800716 0.414852 1.22464 0.239258 1.66667 0.239258ZM23.8333 21.8059C23.6667 21.7226 23.5833 21.4726 23.5833 21.3043V8.58259C23.5833 8.41592 23.6667 8.16592 23.8333 7.99759L25.425 6.15592V6.07259H19.7333L15.4667 16.8693L10.61 6.07259H4.75167V6.15592L6.25833 8.24926C6.59333 8.58259 6.67667 9.08592 6.67667 9.50426V18.7093C6.76 19.2126 6.67667 19.7976 6.42667 20.2993L4.165 23.3959V23.4793H10.1917V23.3959L7.93167 20.3843C7.68167 19.8809 7.59667 19.3793 7.68167 18.7943V10.4226C7.765 10.5893 7.84833 10.5893 7.93167 10.9243L13.6217 23.6459H13.705L19.2317 9.83926C19.1483 10.3393 19.1483 10.9259 19.1483 11.3459V21.2209C19.1483 21.4709 19.065 21.6376 18.8983 21.8059L17.2233 23.3959V23.4793H25.425V23.3959L23.8333 21.8059Z" fill="white"/>
</svg>
