<svg width="30" height="31" viewBox="0 0 30 31" fill="none" xmlns="http://www.w3.org/2000/svg">
<path d="M27.4277 0.425659H2.54733C1.18782 0.425659 0 1.40387 0 2.7474V27.683C0 29.0339 1.18782 30.2377 2.54733 30.2377H27.4204C28.7872 30.2377 29.812 29.0259 29.812 27.683V2.7474C29.82 1.40387 28.7872 0.425659 27.4277 0.425659ZM9.24106 25.2754H4.97022V11.9965H9.24106V25.2754ZM7.25337 9.97748H7.22276C5.85593 9.97748 4.97089 8.96002 4.97089 7.68635C4.97089 6.38939 5.87923 5.39588 7.27666 5.39588C8.6741 5.39588 9.5292 6.38207 9.55981 7.68635C9.55915 8.96002 8.6741 9.97748 7.25337 9.97748ZM24.8498 25.2754H20.5789V18.0148C20.5789 16.2753 19.9574 15.0868 18.4123 15.0868C17.2318 15.0868 16.533 15.8853 16.2223 16.6632C16.1058 16.9427 16.0745 17.3234 16.0745 17.712V25.2754H11.8037V11.9965H16.0745V13.8444C16.6961 12.9594 17.667 11.6857 19.9261 11.6857C22.7297 11.6857 24.8505 13.5336 24.8505 17.5177L24.8498 25.2754Z" fill="white"/>
</svg>
