<svg width="26" height="31" viewBox="0 0 26 31" fill="none" xmlns="http://www.w3.org/2000/svg">
<path d="M22.4702 7.14532C22.2703 7.04202 22.0757 6.92878 21.8872 6.80602C21.3389 6.44355 20.8362 6.01645 20.3899 5.53393C19.2733 4.25628 18.8563 2.96013 18.7026 2.05264H18.7088C18.5805 1.29938 18.6336 0.812012 18.6416 0.812012H13.5557V20.4782C13.5557 20.7423 13.5557 21.0032 13.5446 21.2611C13.5446 21.2932 13.5415 21.3228 13.5396 21.3573C13.5396 21.3715 13.5396 21.3863 13.5366 21.4011V21.4122C13.4829 22.1179 13.2567 22.7995 12.8779 23.3972C12.499 23.9949 11.979 24.4903 11.3638 24.8399C10.7225 25.2047 9.99721 25.396 9.25944 25.3951C6.88984 25.3951 4.96937 23.4629 4.96937 21.0766C4.96937 18.6904 6.88984 16.7582 9.25944 16.7582C9.70799 16.7578 10.1538 16.8284 10.5803 16.9673L10.5864 11.7889C9.29174 11.6217 7.97644 11.7245 6.7235 12.0911C5.47057 12.4576 4.30719 13.0798 3.30677 13.9185C2.43016 14.6802 1.6932 15.5889 1.12903 16.604C0.914346 16.9741 0.104329 18.4615 0.00623822 20.8755C-0.0554539 22.2457 0.356032 23.6652 0.552213 24.2519V24.2643C0.675598 24.6097 1.15371 25.7887 1.93288 26.7825C2.56118 27.5798 3.30349 28.2801 4.13591 28.8609V28.8486L4.14825 28.8609C6.61038 30.534 9.34025 30.4242 9.34025 30.4242C9.81282 30.4051 11.3958 30.4242 13.1935 29.5723C15.1874 28.6278 16.3226 27.2206 16.3226 27.2206C17.0478 26.3797 17.6244 25.4215 18.0277 24.387C18.488 23.1773 18.6416 21.7263 18.6416 21.1463V10.713C18.7033 10.75 19.525 11.2935 19.525 11.2935C19.525 11.2935 20.7089 12.0523 22.5559 12.5465C23.8811 12.8981 25.6665 12.9721 25.6665 12.9721V7.92326C25.0409 7.99112 23.7707 7.79371 22.4702 7.14532Z" fill="white"/>
</svg>
