<svg width="30" height="31" viewBox="0 0 30 31" fill="none" xmlns="http://www.w3.org/2000/svg">
<path d="M15 0.239258C12.0333 0.239258 9.13319 1.11899 6.66645 2.76721C4.19972 4.41543 2.27713 6.75811 1.14181 9.499C0.00649926 12.2399 -0.290551 15.2559 0.288228 18.1656C0.867006 21.0753 2.29562 23.7481 4.3934 25.8459C6.49119 27.9436 9.16393 29.3723 12.0736 29.951C14.9834 30.5298 17.9994 30.2328 20.7403 29.0974C23.4811 27.9621 25.8238 26.0395 27.472 23.5728C29.1203 21.1061 30 18.206 30 15.2393C30 13.2694 29.612 11.3189 28.8582 9.499C28.1044 7.67912 26.9995 6.02553 25.6066 4.63266C24.2137 3.23978 22.5601 2.13488 20.7403 1.38106C18.9204 0.627244 16.9698 0.239258 15 0.239258ZM19.77 22.9673C19.714 23.1074 19.6287 23.2339 19.5198 23.3383C19.4108 23.4428 19.2808 23.5227 19.1385 23.5727C18.9961 23.6227 18.8447 23.6417 18.6943 23.6283C18.544 23.615 18.3983 23.5696 18.267 23.4953L14.1945 20.3303L11.5815 22.7423C11.5209 22.787 11.4499 22.8159 11.3752 22.8261C11.3005 22.8363 11.2245 22.8276 11.154 22.8008L11.655 18.3173L11.67 18.3308L11.6805 18.2423C11.6805 18.2423 19.008 11.5703 19.3065 11.2868C19.6095 11.0033 19.509 10.9418 19.509 10.9418C19.527 10.5968 18.9675 10.9418 18.9675 10.9418L9.25801 17.1878L5.21551 15.8108C5.21551 15.8108 4.59451 15.5888 4.53601 15.0983C4.47451 14.6123 5.23501 14.3483 5.23501 14.3483L21.3105 7.96126C21.3105 7.96126 22.632 7.37326 22.632 8.34826L19.77 22.9673Z" fill="white"/>
</svg>
