<svg width="30" height="30" viewBox="0 0 30 30" fill="none" xmlns="http://www.w3.org/2000/svg">
<path d="M14.906 0C6.67443 0 0 6.67443 0 14.906C0 23.1376 6.67443 29.812 14.906 29.812C23.1376 29.812 29.812 23.1376 29.812 14.906C29.812 6.67443 23.1376 0 14.906 0ZM22.0695 11.2361C22.0795 11.3925 22.0795 11.5555 22.0795 11.7152C22.0795 16.5996 18.3597 22.2259 11.5621 22.2259C9.46598 22.2259 7.52288 21.617 5.88588 20.569C6.18533 20.6022 6.47147 20.6155 6.77758 20.6155C8.50774 20.6155 10.0982 20.03 11.3658 19.0384C9.74214 19.0052 8.37798 17.9404 7.91216 16.4765C8.48112 16.5596 8.99351 16.5596 9.57911 16.4099C8.74306 16.2401 7.9916 15.786 7.45239 15.1249C6.91319 14.4638 6.61949 13.6364 6.6212 12.7832V12.7367C7.1103 13.0128 7.68591 13.1825 8.28814 13.2058C7.78188 12.8684 7.36669 12.4113 7.07939 11.875C6.7921 11.3387 6.64157 10.7398 6.64116 10.1314C6.64116 9.44269 6.82083 8.81384 7.14357 8.26818C8.07155 9.41054 9.22952 10.3448 10.5422 11.0104C11.8549 11.6759 13.293 12.0577 14.7629 12.1311C14.2406 9.61904 16.1171 7.58609 18.373 7.58609C19.4377 7.58609 20.3959 8.03194 21.0714 8.75063C21.9065 8.59425 22.705 8.28149 23.4171 7.86225C23.1409 8.71735 22.562 9.43936 21.7934 9.8952C22.5387 9.81534 23.2574 9.60905 23.9228 9.31958C23.4204 10.0582 22.7916 10.7137 22.0695 11.2361Z" fill="white"/>
</svg>
